<?xml version="1.0" standalone="no"?>
<!DOCTYPE svg PUBLIC "-//W3C//DTD SVG 20010904//EN"
 "http://www.w3.org/TR/2001/REC-SVG-20010904/DTD/svg10.dtd">
<svg version="1.0" xmlns="http://www.w3.org/2000/svg"
 width="956.000000pt" height="956.000000pt" viewBox="0 0 956.000000 956.000000"
 preserveAspectRatio="xMidYMid meet">
<metadata>
Created by potrace 1.11, written by Peter Selinger 2001-2013
</metadata>
<g transform="translate(0.000000,956.000000) scale(0.100000,-0.100000)"
fill="#000000" stroke="none">
<path d="M3607 9554 c-1 -1 -47 -5 -102 -8 -55 -4 -131 -11 -170 -17 -38 -5
-88 -12 -110 -15 -75 -10 -238 -45 -257 -55 -10 -5 -18 -7 -18 -5 0 9 -200
-63 -280 -101 -196 -91 -377 -242 -486 -405 -46 -69 -135 -250 -149 -303 -5
-16 -9 -34 -11 -40 -17 -58 -41 -155 -38 -155 2 0 0 -10 -5 -22 -5 -13 -12
-50 -15 -83 -7 -56 -9 -73 -20 -157 -3 -18 -8 -80 -11 -138 -4 -58 -8 -127
-11 -155 -2 -27 -6 -183 -9 -345 -13 -764 -15 -824 -30 -1000 -39 -467 -137
-724 -347 -914 -112 -103 -331 -190 -528 -212 -36 -3 -74 -8 -85 -9 -11 -1
-37 -3 -57 -4 l-38 -1 0 -630 0 -630 33 -1 c17 0 41 -2 52 -3 11 -2 47 -6 80
-10 452 -55 720 -280 825 -693 12 -43 22 -89 24 -103 29 -181 38 -262 51 -460
5 -69 12 -349 20 -855 3 -170 7 -332 10 -360 2 -27 6 -93 10 -145 3 -52 8
-111 10 -130 3 -19 7 -60 10 -90 35 -327 95 -498 244 -697 61 -81 191 -217
251 -262 19 -14 37 -28 40 -31 12 -13 108 -79 150 -103 66 -38 182 -82 290
-110 94 -25 131 -32 265 -52 22 -3 47 -7 55 -10 13 -3 58 -8 195 -21 22 -2
203 -7 401 -10 l362 -7 0 592 0 591 -61 0 c-201 2 -379 16 -517 41 -96 18
-104 20 -170 46 -175 69 -246 230 -255 583 -2 85 -7 297 -10 470 -4 173 -8
332 -10 353 -1 21 -6 95 -10 165 -3 70 -8 145 -10 167 -13 133 -16 165 -22
210 -4 28 -6 53 -5 56 1 4 -3 33 -8 65 -5 33 -11 77 -14 99 -4 22 -11 63 -16
90 -5 28 -12 66 -15 85 -7 47 -52 220 -71 278 -109 323 -357 617 -706 835
l-87 55 54 36 c30 20 57 36 60 36 8 0 143 97 200 144 162 132 327 341 407 516
46 99 89 217 104 285 1 6 9 39 18 75 8 36 22 108 32 160 18 104 19 110 28 190
4 30 9 66 11 80 2 14 7 59 10 100 4 41 8 86 10 100 3 23 12 144 20 280 9 139
16 411 20 690 4 332 8 388 36 497 47 186 134 282 304 336 59 19 190 44 272 52
32 3 78 8 103 10 25 2 100 5 168 5 67 1 123 4 123 8 1 4 2 272 3 595 l1 588
-298 -2 c-163 -2 -298 -4 -300 -5z"/>
<path d="M5809 9333 c-61 -125 -144 -295 -184 -378 -40 -82 -118 -244 -174
-358 -55 -114 -101 -209 -101 -211 0 -2 33 -4 73 -4 77 0 329 -12 356 -17 9
-2 44 -6 76 -10 86 -10 212 -43 270 -70 73 -34 129 -96 164 -180 17 -39 32
-84 35 -100 3 -17 8 -43 12 -58 13 -59 14 -88 18 -327 7 -366 16 -717 21 -774
2 -28 7 -100 10 -161 4 -60 8 -126 10 -145 2 -19 6 -64 10 -100 15 -159 45
-375 69 -495 88 -440 281 -748 628 -1003 117 -85 141 -101 223 -146 l26 -14
-73 -40 c-277 -152 -539 -425 -663 -688 -68 -147 -132 -362 -160 -544 -3 -19
-7 -46 -10 -60 -2 -14 -7 -44 -10 -67 -3 -24 -7 -61 -10 -83 -12 -96 -15 -118
-20 -175 -10 -111 -23 -295 -30 -425 -4 -68 -16 -540 -20 -795 -2 -104 -6
-203 -10 -220 -43 -211 -82 -282 -207 -381 -41 -32 -249 -88 -371 -98 -29 -3
-81 -7 -117 -11 -36 -3 -118 -6 -182 -8 l-118 -2 0 -594 0 -594 348 6 c191 3
367 8 392 11 25 3 68 8 95 11 477 55 812 189 1048 422 195 192 324 482 362
813 3 30 8 66 10 80 20 127 35 475 40 965 4 400 13 625 30 765 2 19 7 58 10
85 3 28 7 61 10 75 3 13 7 42 11 65 3 22 10 58 15 80 5 22 11 47 13 56 41 168
131 339 239 451 101 106 266 194 420 224 10 2 26 5 35 8 21 6 58 12 137 22 33
4 69 8 80 10 11 1 35 3 53 3 l32 1 0 630 c0 347 -3 630 -7 631 -14 2 -57 6
-132 13 -253 23 -462 110 -606 251 -144 140 -228 310 -269 540 -3 17 -8 41
-11 54 -2 13 -7 49 -10 80 -4 31 -8 67 -10 80 -5 27 -15 144 -21 236 -7 120
-15 398 -20 765 -3 206 -6 404 -8 440 -5 94 -16 239 -21 285 -3 22 -7 60 -10
84 -5 51 -15 124 -21 161 -2 14 -7 41 -10 60 -27 172 -108 364 -214 505 -73
98 -184 212 -259 268 -31 23 -58 44 -61 47 -9 11 -105 65 -162 92 -49 23 -163
63 -208 73 -8 1 -33 8 -55 13 -96 25 -293 59 -450 77 -27 3 -61 8 -75 10 -14
3 -58 7 -98 10 l-72 6 -111 -228z"/>
</g>
</svg>
